# xmcd
#
# Track frame offsets: 
#        150
#        13307
#        22233
#        36601
#        50218
#        68802
#        84900
#        104839
#        113924
#        129411
#        145393
#        162014
#        176071
#        187697
#
# Disc length: 4235 seconds
#
# Revision: 0
# Processed by: cddbd v1.5.2PL0 Copyright (c) Steve Scherf et al.
# Submitted via: ExactAudioCopy v1.0b1
#
DISCID=cc10890e
DTITLE=Don Howland - The Land Beyond the Mountains
DYEAR=2002
DGENRE=Indie
TTITLE0=Sail Away
TTITLE1=Barren Woman
TTITLE2=Desdemona
TTITLE3=The Cowboy and the Cowgirl
TTITLE4=Roots
TTITLE5=Life Goes on Here
TTITLE6=Cowgirl Blues
TTITLE7=(I am in) Hell
TTITLE8=Judge
TTITLE9=The Conqueror Worm
TTITLE10=Return to Cinder
TTITLE11=Angel of Death
TTITLE12=Above the Clouds
TTITLE13=Sayanara
EXTD=
EXTT0=
EXTT1=
EXTT2=
EXTT3=
EXTT4=
EXTT5=
EXTT6=
EXTT7=
EXTT8=
EXTT9=
EXTT10=
EXTT11=
EXTT12=
EXTT13=
PLAYORDER=
